HIERARCHY
ROOT hip
{
	OFFSET 0.000000 0.000000 0.000000 
	CHANNELS 6 Xposition Yposition Zposition Xrotation Zrotation Yrotation
	JOINT abdomen
	{
		OFFSET 0.000000 3.402643 0.000000 
		CHANNELS 3 Xrotation Zrotation Yrotation
		JOINT chest
		{
			OFFSET 0.000000 8.438565 -0.680529 
			CHANNELS 3 Xrotation Zrotation Yrotation
			JOINT neck
			{
				OFFSET 0.000000 9.885400 -0.272212 
				CHANNELS 3 Xrotation Zrotation Yrotation
				JOINT head
				{
					OFFSET 0.000000 3.130431 0.000000 
					CHANNELS 3 Xrotation Zrotation Yrotation
					End Site
					{
						OFFSET 0.000000 3.039250 0.000000 
					}
				}
			}
			JOINT lCollar
			{
				OFFSET 3.238290 6.669187 -0.816635 
				CHANNELS 3 Yrotation Zrotation Xrotation
				JOINT lShldr
				{
					OFFSET 2.515050 0.000000 0.000000 
					CHANNELS 3 Zrotation Yrotation Xrotation
					JOINT lForeArm
					{
						OFFSET 11.517700 0.000000 0.000000 
						CHANNELS 3 Yrotation Zrotation Xrotation
						JOINT lHand
						{
							OFFSET 9.026700 0.000000 0.000000 
							CHANNELS 3 Zrotation Yrotation Xrotation
							End Site
							{
								OFFSET 4.028470 0.000000 0.000000 
							}
						}
					}
				}
			}
			JOINT rCollar
			{
				OFFSET -3.238290 6.669187 -0.816635 
				CHANNELS 3 Yrotation Zrotation Xrotation
				JOINT rShldr
				{
					OFFSET -2.515050 0.000000 0.000000 
					CHANNELS 3 Zrotation Yrotation Xrotation
					JOINT rForeArm
					{
						OFFSET -11.517700 0.000000 0.000000 
						CHANNELS 3 Yrotation Zrotation Xrotation
						JOINT rHand
						{
							OFFSET -9.026700 0.000000 0.000000 
							CHANNELS 3 Zrotation Yrotation Xrotation
							End Site
							{
								OFFSET -4.028470 0.000000 0.000000 
							}
						}
					}
				}
			}
		}
	}
	JOINT lThigh
	{
		OFFSET 4.983750 -1.633274 1.361059 
		CHANNELS 3 Xrotation Zrotation Yrotation
		JOINT lShin
		{
			OFFSET -2.041588 -20.007561 0.000000 
			CHANNELS 3 Xrotation Zrotation Yrotation
			JOINT lFoot
			{
				OFFSET 0.000000 -19.190928 -1.224953 
				CHANNELS 3 Xrotation Yrotation Zrotation
				End Site
				{
					OFFSET 0.000000 -2.449906 4.627600 
				}
			}
		}
	}
	JOINT rThigh
	{
		OFFSET -4.983750 -1.633274 1.361059 
		CHANNELS 3 Xrotation Zrotation Yrotation
		JOINT rShin
		{
			OFFSET 2.041588 -20.007561 0.000000 
			CHANNELS 3 Xrotation Zrotation Yrotation
			JOINT rFoot
			{
				OFFSET 0.000000 -19.190928 -1.224953 
				CHANNELS 3 Xrotation Yrotation Zrotation
				End Site
				{
					OFFSET 0.000000 -2.449906 4.627600 
				}
			}
		}
	}
}
MOTION
Frames: 10
Frame Time: 0.050666
-16.682482 41.742596 10.448792 2.734598 -0.731588 91.410255 0.000000 0.000000 0.000000 -0.303188 3.134722 0.295945 6.486897 3.955731 1.226440 -31.714745 1.062225 0.882905 -16.373396 -1.713534 0.430671 -72.074913 -5.700002 16.656708 -92.525085 0.440678 -57.936703 48.709698 20.610075 4.038082 19.451900 11.872490 -2.172716 46.719830 41.987335 -0.556663 115.356949 -4.313104 -22.616211 -31.922863 -10.472100 -1.581081 -5.663492 9.197585 6.653813 29.235020 0.796629 43.510479 0.522000 -0.106091 -24.391117 -13.954807 -5.722621 -2.029560 29.891018 4.110745 -13.161839 -16.435242 -0.332604 2.114073 
-16.697634 41.781757 10.501166 2.783545 -0.897378 93.139816 0.000000 0.000000 0.000000 -0.410790 3.183512 0.055347 6.079760 3.000627 0.742004 -30.648680 1.687170 -0.046163 -15.765197 -1.667544 0.353550 -68.277031 -16.806107 7.227776 -98.443497 -0.387056 -57.267372 49.005310 7.979088 -1.472276 20.678144 13.001046 -2.663170 55.499405 31.441725 12.473852 113.389137 -6.735669 -18.561272 -32.852863 -14.126988 -0.479671 -10.151955 10.131623 5.575825 32.130959 -0.668141 20.272602 -6.222209 0.999288 -18.267443 -13.591990 -5.926962 -2.235199 29.612528 4.323178 -14.055494 -16.577675 -0.347492 2.305426 
-16.769449 41.747475 10.291511 3.037604 -1.033702 94.241859 0.000000 0.000000 0.000000 -0.009780 3.085938 -0.176307 6.159081 2.183675 0.272739 -30.738485 1.796386 -0.677326 -15.119349 -1.591705 0.722280 -62.900768 -27.639584 -3.614258 -103.081520 -2.107625 -53.021519 43.823677 11.938575 -0.166623 21.004511 12.790286 -2.318155 61.197285 23.437372 19.155962 104.898636 -6.752388 -23.063175 -37.578426 -17.024511 0.941971 -13.629009 8.581218 4.161685 28.654539 -1.942063 16.259701 -7.077815 0.780002 -12.498284 -13.666784 -6.862521 -2.662814 30.178234 4.635614 -13.393371 -17.013990 -0.384374 2.475104 
-16.807524 41.694298 9.855631 2.705815 -1.336400 94.087029 0.000000 0.000000 0.000000 0.469543 3.329967 0.291468 6.357199 2.050647 0.599637 -30.502859 1.732241 -0.905428 -14.061184 -2.142081 1.074717 -58.266392 -36.765831 -11.152320 -105.817886 -3.283644 -48.081120 39.495773 12.050359 -0.499786 22.055296 13.703445 -2.210815 60.524292 17.054773 21.931416 94.229507 -5.473497 -26.521450 -32.261806 -21.175085 1.449022 -15.680462 7.459465 3.109087 21.876783 -3.194876 15.012692 -4.724812 0.313674 -7.546860 -14.057673 -7.243680 -2.722569 30.529095 4.728357 -12.560496 -17.161936 -0.431582 2.825982 
-16.692905 41.594326 9.310591 2.091144 -2.020139 94.300957 0.000000 0.000000 0.000000 0.557650 3.447103 0.405151 6.344903 2.085792 0.618846 -30.168793 1.617961 -0.937024 -13.496952 -2.227634 1.151345 -55.695213 -44.073639 -14.514555 -107.839081 -3.874606 -48.255459 46.536304 10.974016 -0.333246 23.012184 14.557426 -2.460876 59.620781 9.875777 21.744854 86.427574 -2.785550 -41.183613 -41.622635 -22.261349 3.504401 -19.303888 6.678709 2.293900 20.248463 -3.751989 16.418695 -1.008920 0.043452 -4.656641 -14.731544 -7.526772 -2.767549 31.069878 4.822414 -12.255919 -17.512814 -0.563456 3.574233 
-16.279522 41.490482 8.692400 0.703944 -2.763464 94.916801 0.000000 0.000000 0.000000 0.332733 3.720640 0.822961 5.589969 2.013847 0.283530 -28.653318 2.135856 -2.008137 -13.242262 -2.233282 0.956777 -56.206940 -48.862835 -11.376405 -106.633041 -2.879085 -44.701275 42.742279 11.209201 -0.542225 24.952639 15.950884 -3.266412 57.947647 -1.232304 12.027310 85.642258 -1.012015 -60.643700 -53.025555 -18.357712 3.798711 -21.911179 6.913383 1.761136 21.340172 -3.507234 14.732269 -0.833837 0.039083 -3.723717 -14.957232 -6.570806 -2.178580 31.059919 4.412157 -14.828240 -17.648033 -0.860360 5.392887 
-15.376287 41.179577 8.089287 -1.085246 -2.763177 98.118668 0.000000 0.000000 0.000000 -0.508765 3.505722 0.037307 5.267859 2.033600 -1.514449 -25.905325 2.577219 -3.097944 -13.853897 -1.860659 0.260180 -63.471642 -49.092400 4.767321 -103.569839 0.754662 -39.177746 40.862537 8.186935 -1.775967 24.633629 15.638556 -3.948398 57.503853 -14.947367 -7.974978 90.961868 1.054804 -68.268158 -54.644962 -18.729198 4.262094 -24.253197 7.371579 1.104850 27.898666 -2.735324 3.167037 -6.115746 0.169188 -3.421815 -14.022291 -5.429319 -2.126330 32.231842 4.060355 -18.460903 -19.036390 -1.383440 8.102866 
-14.480645 40.567253 7.314070 -0.635017 1.611229 101.876686 0.000000 0.000000 0.000000 1.778733 2.264534 -0.788738 8.097718 0.992944 -4.516598 -19.773617 3.587077 -5.369910 -16.508554 -3.479675 2.018996 -68.756912 -41.203884 23.144978 -99.291237 4.226124 -38.198765 40.337761 13.141402 -0.030138 20.370689 12.835949 -0.555063 54.683224 -19.742283 -36.385292 100.480255 8.201280 -56.424809 -60.870892 -21.166496 6.734472 -22.549257 6.211470 1.074517 34.019684 -1.977109 1.828733 -9.766422 0.236611 -2.660456 -10.233932 -6.777003 -5.429496 38.335289 3.689453 -16.103722 -21.153072 -1.927769 10.154062 
-14.297001 40.237206 6.446052 -0.538686 4.384573 100.603470 0.000000 0.000000 0.000000 3.966874 1.831542 -0.751671 11.630999 1.622397 -4.417964 -13.043877 3.032079 -4.442696 -16.599735 -4.709917 3.772694 -69.234703 -27.446644 32.270397 -91.840385 3.758573 -57.088707 58.199524 39.322201 16.867649 19.983671 13.948026 1.342483 44.124245 -9.401006 -59.043850 107.587479 13.771568 -7.276994 -68.011871 -17.905506 6.115692 -21.252495 5.212826 1.253491 36.686543 -1.476172 8.230936 -10.794306 0.296087 -2.985122 -25.844505 -9.333601 -7.279274 56.727978 1.220533 -18.816288 -0.928875 0.008910 11.135597 
-14.994209 40.202915 5.599306 -3.223743 7.868545 92.849373 0.000000 0.000000 0.000000 9.287455 4.558846 3.079419 15.448277 3.478657 0.882070 -6.123141 0.360099 -1.953602 -14.410511 -3.323252 9.010973 -73.333145 -18.347311 29.969767 -84.966103 1.312340 -82.585754 97.279076 40.010162 37.498913 22.722208 18.732780 4.699118 28.371185 11.675600 -45.129711 102.412338 4.218445 29.217712 -72.245781 -10.364982 1.460195 -19.017809 7.341202 2.835504 37.142647 -1.171811 20.785988 -9.478151 0.355863 -4.175807 -39.655804 -6.415679 -3.815708 44.164227 4.674860 -19.634884 7.183722 0.092144 2.017765 
